<svg width="24" height="24" viewBox="0 0 24 24" fill="none" xmlns="http://www.w3.org/2000/svg">
<path d="M16.4251 0.675049H7.5751C6.0001 0.675049 4.7251 1.95005 4.7251 3.52505V20.475C4.7251 22.0501 6.0001 23.3251 7.5751 23.3251H16.4251C18.0001 23.3251 19.2751 22.0501 19.2751 20.475V3.52505C19.2751 1.95005 18.0001 0.675049 16.4251 0.675049ZM6.4126 3.52505C6.4126 2.88755 6.9376 2.36255 7.5751 2.36255H16.4251C17.0626 2.36255 17.5876 2.88755 17.5876 3.52505V16.8376C17.5876 17.5126 17.0251 18.0751 16.3501 18.0751H7.6501C6.9751 18.0751 6.4126 17.5126 6.4126 16.8376V3.52505ZM16.4251 21.6751H7.5751C6.9376 21.6751 6.4126 21.1501 6.4126 20.5126V19.5001C6.7876 19.6876 7.2001 19.7626 7.6501 19.7626H16.3501C16.8001 19.7626 17.2126 19.6501 17.5876 19.5001V20.475C17.5876 21.1126 17.0626 21.6751 16.4251 21.6751Z" fill="white"/>
<path d="M11.3249 4.98757H12.7499C13.1999 4.98757 13.6124 4.61257 13.6124 4.12507C13.6124 3.63757 13.2374 3.26257 12.7499 3.26257H11.3249C10.8749 3.26257 10.4624 3.63757 10.4624 4.12507C10.4624 4.61257 10.8749 4.98757 11.3249 4.98757Z" fill="white"/>
</svg>
